<svg xmlns="http://www.w3.org/2000/svg" width="16" height="16" viewBox="0 0 172 172" fill="#fff"><g fill="none" stroke-miterlimit="10" font-family="none" font-weight="none" font-size="none" text-anchor="none" style="mix-blend-mode:normal"><path d="M0 172V0h172v172z"/><path d="M86 0c-7.565 0-13.76 6.195-13.76 13.76 0 1.774.35 3.494.968 5.053C53.857 23.837 41.28 40.648 41.28 61.92c0 26.942-6.611 39.21-12.9 46.117-3.144 3.454-6.248 5.55-8.922 7.525-1.344.981-2.567 1.962-3.655 3.226-1.089 1.263-2.043 3.063-2.043 5.052 0 4.73 2.903 8.748 6.988 11.395 4.085 2.647 9.446 4.354 15.91 5.697 8.384 1.734 18.731 2.648 30.1 3.118-.86 2.284-1.398 4.743-1.398 7.31C65.36 162.715 74.645 172 86 172s20.64-9.285 20.64-20.64c0-2.58-.524-5.04-1.397-7.31 11.368-.47 21.715-1.384 30.1-3.118 6.463-1.343 11.825-3.05 15.91-5.697 4.085-2.647 6.987-6.665 6.987-11.395 0-1.989-.954-3.79-2.042-5.052-1.089-1.264-2.312-2.245-3.655-3.225-2.675-1.976-5.779-4.072-8.923-7.525-6.289-6.907-12.9-19.176-12.9-46.118 0-21.258-12.604-38.055-31.927-43.107.618-1.56.967-3.28.967-5.053C99.76 6.195 93.565 0 86 0zm0 6.88c3.843 0 6.88 3.037 6.88 6.88s-3.037 6.88-6.88 6.88-6.88-3.037-6.88-6.88S82.157 6.88 86 6.88zm8.063 17.845c18.342 3.265 29.777 17.442 29.777 37.195 0 28.098 7.149 42.53 14.62 50.74 3.736 4.098 7.512 6.665 9.998 8.492 1.236.914 2.163 1.68 2.58 2.15.416.47.322.43.322.538 0 2.15-.994 3.722-3.87 5.59-2.876 1.868-7.552 3.601-13.545 4.838-11.986 2.485-29.052 3.332-47.945 3.332s-35.959-.847-47.945-3.332c-5.993-1.237-10.67-2.97-13.545-4.838-2.876-1.868-3.87-3.44-3.87-5.59 0-.107-.094-.067.323-.537.416-.47 1.343-1.237 2.58-2.15 2.485-1.828 6.261-4.395 9.997-8.493 7.471-8.21 14.62-22.642 14.62-50.74 0-19.74 11.449-33.809 29.778-37.088 2.284 1.68 5.039 2.688 8.062 2.688 3.05 0 5.778-1.088 8.063-2.795zm-19.888 119.54c3.857.08 7.78.215 11.825.215 4.045 0 7.968-.134 11.825-.215a13.961 13.961 0 011.935 7.095A13.7 13.7 0 0186 165.12a13.7 13.7 0 01-13.76-13.76c0-2.607.685-5.026 1.935-7.095z" fill="#FFF"/></g></svg>