<svg xmlns="http://www.w3.org/2000/svg" width="24" height="24" viewBox="0 0 172 172" fill="#fff"><g fill="none" stroke-miterlimit="10" font-family="none" font-weight="none" font-size="none" text-anchor="none" style="mix-blend-mode:normal"><path d="M0 172V0h172v172z"/><path d="M152.733 1.344a3.732 3.732 0 00-2.771 1.21l-3.627 3.627c-.134.134-.404.403-.538.672-1.075 1.478-.94 3.63.404 4.973l6.582 6.853c1.478 1.612 1.478 4.164 0 5.642l-27.276 27.28c-1.613 1.612-4.167 1.612-5.646 0-1.612-1.613-1.612-4.168 0-5.646l21.637-21.634c1.612-1.612 1.612-4.03 0-5.642l-.942-.943c-1.344-1.343-3.492-1.61-5.105-.535-.269.134-.403.267-.672.535L94.063 58.32c-.807.807-1.21 1.747-1.21 2.822s.403 2.15 1.21 2.821l4.97 4.973 2.554 2.551c1.344 1.344 1.747 3.63.672 5.242-1.478 2.15-4.434 2.418-6.18.672l-2.016-2.15-5.51-5.509c-.94-.94-2.285-1.345-3.629-1.076-1.344.269-2.418 1.21-2.955 2.42l-9.406 22.71c-.672 1.478-.27 3.357.805 4.566 1.075 1.21 2.824 1.48 4.302.943l22.844-9.677c.403-.134.94-.537 1.343-.806L113.28 77.4l55.9-55.766c.806-.806 1.21-1.746 1.21-2.821 0-1.075-.404-2.15-1.21-2.822L155.607 2.554a4.068 4.068 0 00-2.874-1.21zM25.531 8.062a17.434 17.434 0 00-17.468 17.47v120.937a17.434 17.434 0 0017.468 17.469H92.72c2.284 0 4.031-1.747 4.031-4.032 0-2.284-1.747-4.031-4.031-4.031H25.53a9.348 9.348 0 01-9.406-9.406V25.53a9.348 9.348 0 019.406-9.406h80.625c2.285 0 4.031-1.747 4.031-4.031 0-2.285-1.746-4.031-4.03-4.031zm134.375 40.313c-2.284 0-4.031 1.747-4.031 4.031v63.157h-22.844a17.434 17.434 0 00-17.469 17.468v26.875c0 1.613.942 3.092 2.554 3.764.403.134.94.268 1.478.268 1.075 0 2.015-.404 2.821-1.21l40.313-40.313c.806-.806 1.21-1.746 1.21-2.821V52.406c0-2.284-1.747-4.031-4.032-4.031zm-26.875 75.25h17.201l-26.607 26.607v-17.2a9.348 9.348 0 019.406-9.407z" fill="#FFF"/></g></svg>