<svg width="33" height="33" xmlns="http://www.w3.org/2000/svg" xmlns:xlink="http://www.w3.org/1999/xlink"><defs><path id="a" d="M0 0h32v32H0z"/></defs><g fill="none" fill-rule="evenodd"><g transform="translate(.8 .5)"><mask id="b" fill="#fff"><use xlink:href="#a"/></mask><path stroke="#FFF" d="M.5.5h31v31H.5z"/><g mask="url(#b)" fill-rule="nonzero" stroke="#FFF" stroke-linecap="round" stroke-linejoin="round"><path d="M7.84.034l8.023 31.953m-3.885-15.474L32.052 0"/></g></g><path d="M24.577 22.275H23.2v-.87h1.377v-3.988c0-1.242.216-2.15.647-2.723.432-.574 1.087-.86 1.964-.86.432 0 .83.1 1.195.303l-.405.688c-.176-.135-.412-.202-.709-.202-.594 0-1.032.212-1.316.638-.283.425-.425 1.137-.425 2.135v4.009h2.652v.87h-2.652V29.3h-.951v-7.025z" fill="#FFF"/></g></svg>