<svg width="20" height="20" viewBox="0 0 20 20" fill="none" xmlns="http://www.w3.org/2000/svg">
<rect x="0.5" y="0.5" width="19" height="19" rx="4.5" fill="#008124" stroke="#008124"/>
<path d="M3.15273 7.01881C3.7979 5.38199 4.7991 4.12352 6.21768 3.21391C10.89 0.217468 17.0971 3.0578 17.9167 8.56322C18.6519 13.5031 14.4129 17.852 9.44112 17.2387C6.98152 16.9353 5.10735 15.6895 3.79232 13.5979C3.51594 13.1582 3.54382 12.7791 3.84091 12.4677C4.24872 12.04 4.87398 12.1268 5.21647 12.6772C5.84093 13.6823 6.65018 14.4924 7.73024 14.987C9.9708 16.0121 12.1245 15.8178 14.0457 14.2773C15.9828 12.7242 16.6837 10.6341 16.0895 8.22949C15.4993 5.84157 13.9143 4.34973 11.5001 3.83837C8.4901 3.20117 5.36701 5.10959 4.6406 8.03913C5.16072 7.74601 5.63304 7.47281 6.11174 7.21236C6.41919 7.04429 6.72744 7.0658 7.01179 7.2713C7.29694 7.47759 7.43633 7.77867 7.33437 8.10603C7.26587 8.32666 7.10817 8.57677 6.91701 8.69226C5.95324 9.27609 4.97035 9.82887 3.98428 10.3753C3.49682 10.6453 3.03565 10.5043 2.77439 10.0065C2.20728 8.92404 1.65133 7.83841 1.10731 6.7472C0.875531 6.28284 1.03244 5.80653 1.45061 5.58669C1.8847 5.3581 2.37136 5.52297 2.62704 5.9945C2.7967 6.30833 2.95281 6.62932 3.15273 7.01881Z" fill="white"/>
<path d="M9.48833 7.93395C9.48833 7.40348 9.48435 6.87301 9.48913 6.34254C9.4939 5.77304 9.8364 5.40506 10.3478 5.40984C10.8464 5.41382 11.1769 5.76348 11.1825 6.32104C11.1913 7.19639 11.1705 8.07175 11.196 8.94631C11.2016 9.14464 11.298 9.38439 11.4342 9.52776C12.0722 10.2016 12.7405 10.846 13.3936 11.5055C13.8149 11.9308 13.8476 12.4461 13.4852 12.8038C13.114 13.1702 12.6242 13.1351 12.1869 12.7002C11.3967 11.9149 10.5955 11.1407 9.83481 10.3274C9.64763 10.1267 9.53054 9.80255 9.50267 9.52298C9.45169 8.99888 9.48833 8.46442 9.48833 7.93395Z" fill="white"/>
</svg>
