<svg width="25" height="21" viewBox="0 0 25 21" fill="none" xmlns="http://www.w3.org/2000/svg">
<path d="M17.6667 19.75V17.6667C17.6667 16.5616 17.2277 15.5018 16.4463 14.7204C15.6649 13.939 14.6051 13.5 13.5 13.5H5.16667C4.0616 13.5 3.00179 13.939 2.22039 14.7204C1.43899 15.5018 1 16.5616 1 17.6667V19.75M23.9167 19.75V17.6667C23.916 16.7435 23.6087 15.8466 23.0431 15.117C22.4775 14.3874 21.6856 13.8662 20.7917 13.6354M16.625 1.13542C17.5213 1.3649 18.3157 1.88615 18.883 2.61699C19.4502 3.34783 19.7582 4.2467 19.7582 5.17187C19.7582 6.09705 19.4502 6.99592 18.883 7.72676C18.3157 8.4576 17.5213 8.97885 16.625 9.20833M13.5 5.16667C13.5 7.46785 11.6345 9.33333 9.33333 9.33333C7.03215 9.33333 5.16667 7.46785 5.16667 5.16667C5.16667 2.86548 7.03215 1 9.33333 1C11.6345 1 13.5 2.86548 13.5 5.16667Z" stroke="#090A0A" stroke-width="1.5" stroke-linecap="round" stroke-linejoin="round"/>
</svg>
