<svg width="16" height="17" viewBox="0 0 16 17" fill="none" xmlns="http://www.w3.org/2000/svg">
<path d="M12 9.46663H8.8V12.6666H7.2V9.46663H4V7.86663H7.2V4.66663H8.8V7.86663H12V9.46663ZM8 0.666626C6.94943 0.666626 5.90914 0.873552 4.93853 1.27559C3.96793 1.67763 3.08601 2.2669 2.34315 3.00977C0.842855 4.51006 0 6.54489 0 8.66663C0 10.7884 0.842855 12.8232 2.34315 14.3235C3.08601 15.0663 3.96793 15.6556 4.93853 16.0577C5.90914 16.4597 6.94943 16.6666 8 16.6666C10.1217 16.6666 12.1566 15.8238 13.6569 14.3235C15.1571 12.8232 16 10.7884 16 8.66663C16 7.61605 15.7931 6.57576 15.391 5.60516C14.989 4.63455 14.3997 3.75264 13.6569 3.00977C12.914 2.2669 12.0321 1.67763 11.0615 1.27559C10.0909 0.873552 9.05058 0.666626 8 0.666626Z" fill="#F78A29"/>
</svg>
