<svg width="16" height="17" viewBox="0 0 16 17" fill="none" xmlns="http://www.w3.org/2000/svg">
<path d="M12 9.4665H8.8V12.6665H7.2V9.4665H4V7.8665H7.2V4.6665H8.8V7.8665H12V9.4665ZM8 0.666504C6.94943 0.666504 5.90914 0.87343 4.93853 1.27547C3.96793 1.67751 3.08601 2.26678 2.34315 3.00965C0.842855 4.50994 0 6.54477 0 8.6665C0 10.7882 0.842855 12.8231 2.34315 14.3234C3.08601 15.0662 3.96793 15.6555 4.93853 16.0575C5.90914 16.4596 6.94943 16.6665 8 16.6665C10.1217 16.6665 12.1566 15.8236 13.6569 14.3234C15.1571 12.8231 16 10.7882 16 8.6665C16 7.61593 15.7931 6.57564 15.391 5.60504C14.989 4.63443 14.3997 3.75252 13.6569 3.00965C12.914 2.26678 12.0321 1.67751 11.0615 1.27547C10.0909 0.87343 9.05058 0.666504 8 0.666504Z" fill="#008124"/>
</svg>
