<svg width="24" height="28" viewBox="0 0 24 28" fill="none" xmlns="http://www.w3.org/2000/svg">
<path d="M0.75 6.5H3.25M3.25 6.5H23.25M3.25 6.5V24C3.25 24.663 3.51339 25.2989 3.98223 25.7678C4.45107 26.2366 5.08696 26.5 5.75 26.5H18.25C18.913 26.5 19.5489 26.2366 20.0178 25.7678C20.4866 25.2989 20.75 24.663 20.75 24V6.5H3.25ZM7 6.5V4C7 3.33696 7.26339 2.70107 7.73223 2.23223C8.20107 1.76339 8.83696 1.5 9.5 1.5H14.5C15.163 1.5 15.7989 1.76339 16.2678 2.23223C16.7366 2.70107 17 3.33696 17 4V6.5M9.5 12.75V20.25M14.5 12.75V20.25" stroke="#333333" stroke-width="1.5" stroke-linecap="round" stroke-linejoin="round"/>
</svg>
