<svg width="30" height="27" viewBox="0 0 30 27" fill="none" xmlns="http://www.w3.org/2000/svg">
<path d="M3.79894 8.85672C4.93747 5.96822 6.7043 3.74738 9.20766 2.1422C17.4529 -3.14564 28.4067 1.8667 29.853 11.5822C31.1504 20.2997 23.6698 27.9742 14.8961 26.8919C10.5556 26.3564 7.24827 24.158 4.92763 20.4669C4.43989 19.691 4.48909 19.022 5.01337 18.4724C5.73304 17.7176 6.83643 17.8708 7.44083 18.8421C8.54282 20.6159 9.9709 22.0454 11.8769 22.9183C15.8308 24.7273 19.6315 24.3843 23.0218 21.6659C26.4402 18.925 27.6772 15.2367 26.6286 10.9932C25.587 6.77925 22.7899 4.14657 18.5296 3.24418C13.2178 2.11971 7.70649 5.48751 6.42459 10.6573C7.34244 10.14 8.17596 9.6579 9.02072 9.19827C9.56328 8.90169 10.1072 8.93965 10.609 9.30229C11.1122 9.66634 11.3582 10.1977 11.1783 10.7754C11.0574 11.1647 10.7791 11.6061 10.4418 11.8099C8.74101 12.8402 7.00651 13.8156 5.26638 14.7799C4.40616 15.2564 3.59232 15.0076 3.13128 14.1291C2.1305 12.2189 1.1494 10.3031 0.189377 8.37741C-0.219651 7.55795 0.0572514 6.7174 0.795188 6.32946C1.56124 5.92605 2.42005 6.21701 2.87125 7.04912C3.17064 7.60293 3.44614 8.16938 3.79894 8.85672Z" fill="#E17335"/>
</svg>
