<svg width="18" height="16" viewBox="0 0 18 16" fill="none" xmlns="http://www.w3.org/2000/svg">
<path d="M11.903 9.21458C11.903 10.8153 10.6008 12.1176 9 12.1176C7.39924 12.1176 6.09753 10.8153 6.09753 9.21458C6.09753 7.61382 7.39924 6.31162 9 6.31162C10.6008 6.31162 11.903 7.61432 11.903 9.21458ZM18 5.09251V13.3377C18 14.4368 17.1088 15.328 16.0096 15.328H1.99038C0.891192 15.328 0 14.4368 0 13.3377V5.09251C0 3.99332 0.891192 3.10213 1.99038 3.10213H4.43855V2.41346C4.43855 1.45161 5.21778 0.671875 6.18013 0.671875H11.8199C12.7822 0.671875 13.5615 1.45161 13.5615 2.41346V3.10163H16.0096C17.1088 3.10213 18 3.99332 18 5.09251ZM13.3958 9.21458C13.3958 6.7908 11.4238 4.81883 9 4.81883C6.57671 4.81883 4.60474 6.7908 4.60474 9.21458C4.60474 11.6384 6.57671 13.6103 9 13.6103C11.4238 13.6103 13.3958 11.6384 13.3958 9.21458Z" fill="black"/>
</svg>
