<svg xmlns="http://www.w3.org/2000/svg" width="20" height="20" viewBox="0 0 172 172" fill="#fff"><g fill="none" stroke-miterlimit="10" font-family="none" font-weight="none" font-size="none" text-anchor="none" style="mix-blend-mode:normal"><path d="M0 172V0h172v172z"/><path d="M37.625 21.5c-8.86 0-16.125 7.265-16.125 16.125v96.75c0 8.86 7.265 16.125 16.125 16.125h96.75c8.86 0 16.125-7.265 16.125-16.125v-96.75c0-8.86-7.265-16.125-16.125-16.125zm0 10.75h96.75c3.023 0 5.375 2.352 5.375 5.375v96.75c0 3.023-2.352 5.375-5.375 5.375h-96.75c-3.023 0-5.375-2.352-5.375-5.375v-96.75c0-3.023 2.352-5.375 5.375-5.375zm23.936 21.752l-7.559 7.559L78.399 86l-24.397 24.397 7.559 7.643L86 93.6l24.397 24.44 7.643-7.643L93.6 86l24.44-24.44-7.643-7.558L86 78.399z" fill="#fff"/></g></svg>