<svg xmlns="http://www.w3.org/2000/svg" viewBox="0 0 103.8 75.6"><switch><g><path d="M37.9 0v6c-8.6 4.5-14.7 9.2-18.5 14.1-3.7 4.9-5.6 10.2-5.6 16 0 3.4.5 5.8 1.5 7 .9 1.4 2 2.1 3.2 2.1 1.3 0 3-.4 5.1-1.1 2.1-.7 4.1-1.1 5.9-1.1 4 0 7.5 1.5 10.5 4.5s4.5 6.6 4.5 10.9c0 4.7-1.8 8.7-5.4 12.1-3.6 3.4-8.1 5.1-13.5 5.1-6.5 0-12.5-2.8-17.7-8.5C2.6 61.3 0 54.3 0 46c0-9.8 3.2-18.9 9.7-27.3C16.2 10.2 25.6 4 37.9 0zm58.9.4V6c-9.9 5.7-16.4 10.7-19.5 15.2-3.1 4.5-4.7 9.8-4.7 15.8 0 2.7.5 4.8 1.6 6.2 1.1 1.4 2.2 2.1 3.4 2.1 1.1 0 2.7-.4 4.8-1.2 2.1-.8 4.3-1.2 6.4-1.2 4 0 7.5 1.4 10.5 4.3s4.5 6.4 4.5 10.6c0 4.8-1.9 8.9-5.6 12.5-3.8 3.5-8.4 5.3-13.8 5.3-6.4 0-12.3-2.8-17.4-8.3-5.2-5.6-7.8-12.5-7.8-20.8 0-10.3 3.3-19.6 9.8-28.1C75.5 9.9 84.8 4 96.8.4z" fill="#fff"/></g></switch></svg>