<svg xmlns="http://www.w3.org/2000/svg" width="24" height="24" viewBox="0 0 172 172" fill="#fff"><g fill="none" stroke-miterlimit="10" font-family="none" font-weight="none" font-size="none" text-anchor="none" style="mix-blend-mode:normal"><path d="M0 172V0h172v172z"/><path d="M30.96 13.76c-9.458 0-17.2 7.742-17.2 17.2v110.08c0 9.458 7.742 17.2 17.2 17.2h57.902c.372.061.75.061 1.122 0h19.518c.372.061.75.061 1.122 0h30.416c9.458 0 17.2-7.742 17.2-17.2V30.96c0-9.458-7.742-17.2-17.2-17.2zm0 6.88h110.08c5.74 0 10.32 4.58 10.32 10.32v110.08c0 5.74-4.58 10.32-10.32 10.32h-27.52V103.2h13.142l4.817-24.08H113.52v-6.88c0-1.918.182-2.068.826-2.486.644-.418 2.634-.954 6.054-.954h10.32V49.43l-1.962-.934s-7.902-3.776-18.678-3.776c-7.74 0-14.099 3.084-18.168 8.17C87.844 57.976 86 64.787 86 72.24v6.88H75.68v24.08H86v48.16H30.96a10.27 10.27 0 01-10.32-10.32V30.96c0-5.74 4.58-10.32 10.32-10.32zm79.12 30.96c7.152 0 11.653 1.577 13.76 2.412v7.908h-3.44c-3.959 0-7.131.327-9.803 2.063-2.671 1.735-3.957 5.029-3.957 8.257V86h16.44l-2.062 10.32H106.64v55.04H92.88V96.32H82.56V86h10.32V72.24c0-6.307 1.596-11.536 4.407-15.05 2.812-3.514 6.773-5.59 12.793-5.59z" fill="#FFF"/></g></svg>