<svg xmlns="http://www.w3.org/2000/svg" width="24" height="24" viewBox="0 0 172 172" fill="#fff"><g fill="none" stroke-miterlimit="10" font-family="none" font-weight="none" font-size="none" text-anchor="none" style="mix-blend-mode:normal"><path d="M0 172V0h172v172z"/><path d="M89.44 6.88C45.782 6.88 10.32 42.342 10.32 86s35.462 79.12 79.12 79.12c34.118 0 54.946-15.695 65.79-35.153 10.844-19.457 12.215-42.314 8.923-57.942l-.645-2.688h-2.688l-71.38-.107H86v35.797h39.345c-5.94 13.76-18.033 23.22-35.905 23.22-23.354 0-42.247-18.893-42.247-42.247S66.086 43.752 89.44 43.752c10.495 0 20.022 3.884 27.413 10.213l2.472 2.042 23.543-23.542 2.472-2.58-2.58-2.365C128.704 14.714 109.946 6.88 89.44 6.88zm0 6.88c17.455 0 33.204 6.383 45.688 16.663l-16.555 16.555c-8.184-6.115-18.128-10.106-29.133-10.106-27.077 0-49.127 22.051-49.127 49.128s22.05 49.127 49.127 49.127c22.535 0 38.74-13.813 44.505-32.572l1.397-4.407H92.88V76.11l64.823.108c2.284 13.88.765 33.808-8.493 50.417-9.836 17.63-27.708 31.605-59.77 31.605-39.95 0-72.24-32.304-72.24-72.24 0-39.936 32.29-72.24 72.24-72.24z" fill="#FFF"/></g></svg>