<svg width="186" height="83" xmlns="http://www.w3.org/2000/svg"><path d="M3.9 63.1H1.1v1h2.5c.3 0 .5 0 .8.2.2.2.2.5.2.7v.5c0 .3 0 .5-.2.7-.2.2-.5.2-.8.2H1.2c-.3 0-.5 0-.8-.2-.2-.2-.2-.5-.2-.7v-.3H1v.6h3v-1.1H1.4c-.3 0-.5 0-.8-.2-.2-.2-.2-.5-.2-.7v-.4c0-.3 0-.5.2-.7.2-.2.5-.2.8-.2h2.2c.3 0 .5 0 .7.2.2.2.3.4.2.7v.2h-.7l.1-.5zm10.5 3.4h-.7v-3.9h.7zm8.6 0l2-2-2-1.9h1l1.4 1.4 1.3-1.4h.9l-1.8 1.8 2.2 2.1h-1l-1.6-1.6-1.4 1.6zm15.4-3.4v3.3h-.7v-3.3h-1.9v-.6h4.5v.6zm11.7 3.4v-1.7L48 62.6h1l1.6 1.7 1.5-1.7h.9l-2 2.2v1.7zm11.3 0v-3.9h3.9v.6h-3.2v1.2h3.2v.6h-3.2v1.6zm13.2 0h-.7v-3.9h.7zm10.7 0L83 62.6h.8l1.8 3.1 1.7-3.1h.7l-2.2 3.9zm11.3 0v-3.9h4v.6h-3.3v1h3.2v.6h-3.2V66h3.2v.6zM2.5 51.6c-.6 0-1.3-.2-1.7-.7-.5-.6-.7-1.4-.6-2.2 0-.9.2-1.9.5-2.7 0 0 1.1-2.1 2.2-1.8.9.3.8.5 1.5.5.8-.1 1.5-.5 2.2-.9 1.1-.9 2.2-1.9 3.2-2.9 1.7-1.7 3.2-3.6 4.3-5.7.7-1.2 2.3-4.9 4.9-10.9 1.3-3 2.8-6 4.4-8.8 1.5-2.7 2.5-4.6 3-5.5.9-1.6 1.5-2.5 2.7-4.2.8-1.3 1.8-2.6 2.8-3.8.8-.9 1.9-1.5 3.1-1.5 1.9 0 2.8 1.4 2.8 4-.1 2.4-.6 4.8-1.4 7-1.5 3.9-3.4 7.7-5.7 11.3-2.5 3.4-5.1 6.7-8 9.8-3.7 4.1-5.4 7.7-5.4 10.8 0 1.9.3 3.2.9 3.9.7.7 1.6 1.1 2.6 1.1 2.1 0 4.2-.4 6.2-1.2 2.7-1.1 11.1-5.1 11.1-5.1l.3.4c-1.3 1.4-2.8 2.7-4.4 3.9-2.3 1.7-4.8 3.2-7.3 4.5-1.9 1-3.9 1.5-6 1.6-.7 0-1.3 0-2-.2-2-.2-3.7-1.7-4.1-3.7-.3-1.7-.7-3.5-1.1-5.2l-1.1.6s-7.5 7.6-9.9 7.6zM32.2 6.2c-.5.5-.9 1.1-1.2 1.7-.4.8-2.5 4.6-2.5 4.6-.4.9-1.5 2.9-3.1 5.9-2.3 4.1-3.5 7.2-3.6 9.4 1.6-1.1 3-2.5 4.1-4.1 1.4-1.9 2.7-4 3.8-6.1 1.6-3.4 4.3-7.1 4.3-10.8 0-.5-.1-1.1-.2-1.6 0 0-.6-.2-1.6 1zm37.2 0c-.5.5-.9 1.1-1.2 1.7-.4.8-2.5 4.6-2.5 4.6-.4.9-1.5 2.9-3.1 5.9-2.3 4.1-3.5 7.2-3.6 9.4 1.6-1.1 3-2.5 4.1-4.1 1.4-1.9 2.7-4 3.8-6.1 1.6-3.4 4.3-7.1 4.3-10.8 0-.5-.1-1.1-.2-1.6 0 0-.6-.2-1.6 1zM39.7 51.6c-.6 0-1.3-.2-1.7-.7-.5-.6-.7-1.4-.6-2.2 0-.9.2-1.9.5-2.7 0 0 1.1-2.1 2.2-1.8.9.3.8.5 1.5.5.8-.1 1.5-.5 2.2-.9 1.1-.9 2.2-1.9 3.2-2.9 1.7-1.7 3.2-3.6 4.3-5.7.7-1.2 2.3-4.9 4.9-10.9 1.3-3 2.8-6 4.4-8.8 1.5-2.7 2.5-4.6 3-5.5.9-1.6 1.5-2.5 2.7-4.2.8-1.3 1.8-2.6 2.8-3.8.8-.9 1.9-1.5 3.1-1.5 1.9 0 2.8 1.4 2.8 4-.1 2.4-.6 4.8-1.4 7-1.5 3.9-3.4 7.7-5.7 11.3-2.5 3.4-5.1 6.7-8 9.8-3.7 4.1-5.4 7.7-5.4 10.8 0 1.9.3 3.2.9 3.9.7.7 1.6 1.1 2.6 1.1 2.1 0 4.2-.4 6.2-1.2 2.7-1.1 11.1-5.1 11.1-5.1l.3.4c-1.6 1.2-3 2.5-4.6 3.6-2.3 1.7-4.8 3.2-7.3 4.5-1.9 1-3.9 1.5-6 1.6-.7 0-1.3 0-2-.2-2-.2-3.7-1.7-4.1-3.7-.3-1.7-.7-3.5-1.1-5.2l-.9.9s-7.5 7.6-9.9 7.6zm58.4-15.8c.2.9.8 1.8 1.6 2.3.8.4 1.8.6 2.7.6 1-.1 1.8-.1 2.3-.1-.6 1.2-1.6 2.1-2.8 2.7-1.4.8-2.6 1.5-3.8 2.2-1.5 1.1-3.1 2.1-4.7 2.9-1.7.8-3.4 1.5-5.2 2.2-2.2 1-4.1 1.7-5.6 2.3-1.1.5-2.3.7-3.6.8-.8.1-1.7-.2-2.3-.8-.6-.9-.9-1.9-.8-2.9 0-1.5 1.1-3.2 2.4-4.6 1.2-1.4 6-5.7 9.7-7.5 2.1-1.2 4.4-2.1 6.8-2.8.5.3 1.1.6 1.7.6.6.2 1.1.8 1.6 2.1zM81 46.9c.8.2 1.6.3 2.4.3 1.1 0 2.2-.3 3.1-.8.5-.2 1.2-.6 2.2-1.2.6-.3 1.2-.6 1.8-1 .5-.3 1-.7 1.4-1.2.3-.4.5-.9.5-1.5-.1-1.1-.3-2.3-.6-3.4-.2-.6-.3-1.2-.3-1.9-2.7 1.9-4.7 3.4-6.1 4.5-2.7 2.3-4.1 4.3-4.4 6.2zm65.2-12.2c.1 1-.1 1.9-.6 2.8-.7 1.7-1.1 2.7-1.1 2.8l7.7 1.7c-.1.3-.2.7-.3 1-.1.4-.2.7-.3 1.1-.4 0-1.1 0-1.9-.1-.9-.1-1.5-.1-1.9-.1-1.1 0-2.2.1-3.2.5-.9.4-1.7 1-2.3 1.9-2.2 3.5-4.4 7-6.6 10.4-.6.7-1.7 2.5-3.8 4.9-3 3.6-4.7 5.6-6.8 7.7-2.4 2.4-4.5 4.6-5.8 5.9-4.4 4.3-8.1 6.6-11.3 7.4-.3.1-.6.1-.8.1-.3.1-.6.1-1 .1-1.1 0-1.7-.5-1.7-1.5 0-1.2.9-3.2 2.6-5.8.9-1.4 2.2-3.2 3.7-5.1 2.9-3.8 5.9-7.5 8.8-11.2 3-3.7 6.3-7.1 10-10.2 1.1-.9 2.2-1.7 3.4-2.4 1.2-.7 2.4-1.4 3.6-1.9.8-.3 1.6-.8 2.2-1.4.4-.4.6-1 .6-1.6 0-.7-.2-1.4-.3-2.1-2.8 2.6-5.7 5-8.7 7.2-4 2.9-7.4 4.5-10.1 4.8-.4.1-.8.1-1.2.1-2 0-3.1-.7-3.1-2.2 0-.6.2-1.2.5-1.7.3-.7 1.6-2.2 3.8-4.3.9-.8 1.6-1.8 2.2-2.8-.3-.1-.7-.1-1-.1-2.4.1-4.7.8-6.8 2-2.2 1.2-4.4 2.4-6.5 3.6l-7.2 4.5c-.6 0-1.2-.1-1.7-.3-.3-.3-.5-.6-.5-1 0-.5.2-1 .6-1.4.3-.4.7-.8 1.1-1.1 4.6-3 9.4-5.7 14.4-8 3.2-1.4 6.5-2.4 9.9-3.1.2-.1.6-.1 1.2-.3.5-.1.9-.2 1.4-.2.7 0 1.4.3 1.7.9.3.5.5 1.1.6 1.7-.1.8-.3 1.6-.8 2.3-.8 1.2-1.5 2.5-1.9 3.9 2.2-1.3 4.4-2.6 6.5-4.1.6-.4 4-3.1 10.1-8 .7.3 1.3.8 1.9 1.2.4.4.7 1 .7 1.5zm-33.5 36.7c-2.6 3.1-3.8 5.5-3.6 7.5.5 0 2.4.1 6.2-3.4 1.4-1.3 8.8-9.2 10.3-11 1.6-1.8 2.5-2.9 5.3-6 4-4.5 4.8-7.4 4.8-10.5-3.2 2.2-6.3 4.7-9.3 7.3-3.2 3.1-12.3 14.5-13.7 16.1zm61.8-21.3c-.9-.1-1.8-.5-2.5-1.1-.8-.7-2.8-3-2.9-3.1-.7.4-4.6 2.2-6.5 3.1-2.3 1.1-4.8 2.1-7.3 2.7-.6.2-1.3.3-1.9.3-1.4 0-2.1-.6-2.1-1.8 0-1.2.7-2.8 2-4.7 1-1.5 2.2-2.9 3.6-4.1 1.9-1.4 4-2.3 6.3-2.8.8-.2 2.9-.5 6.2-1 3.4-.5 6.2-3.4 8.3-8.6 2.1-5.3 4.2-8.2 6.3-8.6.7 1.9 1.3 3.9 1.7 5.9.3 1.9.3 3.9-.2 5.8-.2.8-.6 1.6-1 2.4-.7 1.1-1.6 2.1-2.6 2.9-1.7 1.4-3.4 2.8-5.1 4.1-.8.6-1.3 1.6-1.4 2.7 0 .8.8 1.3 2.4 1.5 1.6.1 3.2.2 4.6.3-.3 1.4-1 2.6-2.2 3.5-1.2.6-2.5 1-3.8 1-.6-.3-1.3-.3-1.9-.4zm3.7-12.4c1.6-1.2 2.9-2.7 3.9-4.4 1.2-1.7 1.8-3.6 2-5.6 0-.8-.1-1.6-.5-2.3-.3-.7-.9-1.3-1.6-1.7-1.1 2.7-1.9 4.7-2.4 6-.9 1.9-1.4 4-1.5 6.2-.1.5-.1 1.2.1 1.8zm-24.1 10.8c2 0 3.9-.3 5.7-1 3.1-1 5.9-2.5 8.5-4.4 1.6-1.1 2.5-2.8 2.6-4.8-3.5.3-6.8 1.3-9.9 3-3.5 2-5.8 4.4-6.9 7.2z" fill="#FFF"/></svg>