<svg xmlns="http://www.w3.org/2000/svg" viewBox="2661 -1971 202.38 90"><defs><style>.cls-1{fill:#fff}</style></defs><g id="Group_723" data-name="Group 723" transform="translate(2421 -2013)"><path id="Path_9" data-name="Path 9" class="cls-1" d="M4.614 363.915h-3v1.118h2.74a1.244 1.244 0 01.82.205 1.113 1.113 0 01.224.8v.522a1.113 1.113 0 01-.224.8 1.145 1.145 0 01-.82.205h-2.61a1.306 1.306 0 01-.839-.205 1.12 1.12 0 01-.205-.8v-.28h.745v.634H4.67v-1.193H1.911a1.244 1.244 0 01-.82-.205 1.12 1.12 0 01-.205-.8v-.41a1.185 1.185 0 01.205-.8 1.175 1.175 0 01.82-.205H4.3a1.22 1.22 0 01.8.205.9.9 0 01.242.746v.261H4.6v-.6z" transform="translate(239.43 -253.609)"/><path id="Path_10" data-name="Path 10" class="cls-1" d="M79.9 367.468h-.8V363.2h.8z" transform="translate(175.642 -253.528)"/><path id="Path_11" data-name="Path 11" class="cls-1" d="M133.619 367.468l2.162-2.181-2.181-2.087h1.081l1.547 1.547 1.416-1.547h.988l-1.957 1.976 2.4 2.292h-1.137l-1.733-1.733-1.547 1.733z" transform="translate(131.3 -253.528)"/><path id="Path_12" data-name="Path 12" class="cls-1" d="M211.333 363.834v3.634h-.8v-3.634H208.5v-.634h4.864v.634z" transform="translate(70.359 -253.528)"/><path id="Path_13" data-name="Path 13" class="cls-1" d="M282.436 367.468V365.6l-2.236-2.4h.988l1.7 1.845 1.621-1.845h.95l-2.218 2.4v1.864z" transform="translate(12.022 -253.528)"/><path id="Path_14" data-name="Path 14" class="cls-1" d="M358.2 367.468V363.2h4.268v.634H359v1.323h3.467v.615H359v1.7z" transform="translate(-51.441 -253.528)"/><path id="Path_15" data-name="Path 15" class="cls-1" d="M431.6 367.468h-.8V363.2h.8z" transform="translate(-110.51 -253.528)"/><path id="Path_16" data-name="Path 16" class="cls-1" d="M487.26 367.468l-2.46-4.268h.876l1.92 3.429 1.826-3.429h.8l-2.348 4.268z" transform="translate(-154.446 -253.528)"/><path id="Path_17" data-name="Path 17" class="cls-1" d="M563.7 367.468V363.2h4.342v.634H564.5v1.1h3.541v.634H564.5v1.286h3.541v.615z" transform="translate(-218.641 -253.528)"/><path id="Path_18" data-name="Path 18" class="cls-1" d="M2.553 55.826a2.56 2.56 0 01-1.863-.764A3.572 3.572 0 010 52.676a6.736 6.736 0 01.578-2.963s1.23-2.292 2.367-1.938c.932.28.913.559 1.621.522a5.892 5.892 0 002.4-1.006 39.82 39.82 0 003.448-3.15 29.688 29.688 0 004.734-6.169c.764-1.361 2.516-5.33 5.293-11.891a91.777 91.777 0 014.79-9.6c1.663-2.981 2.762-4.975 3.269-5.981 1-1.734 1.674-2.7 2.9-4.6a40.843 40.843 0 013.042-4.16A4.622 4.622 0 0137.853.1c2.069 0 3.019 1.566 3.019 4.305a24.442 24.442 0 01-1.528 7.679 70.39 70.39 0 01-6.206 12.3 112.9 112.9 0 01-8.722 10.642c-3.988 4.492-5.927 8.387-5.927 11.723 0 2.05.354 3.448 1.006 4.231a3.671 3.671 0 002.814 1.193 15.826 15.826 0 006.709-1.361C31.926 49.62 41.1 45.221 41.1 45.221l.317.429a32.517 32.517 0 01-4.771 4.212 53.317 53.317 0 01-8 4.883 16.28 16.28 0 01-6.56 1.771 11 11 0 01-2.143-.186 4.971 4.971 0 01-4.437-4.03 218.926 218.926 0 00-1.174-5.666l-.951.951c-.019-.037-8.2 8.238-10.828 8.238zm32.373-49.5a9.578 9.578 0 00-1.342 1.9c-.466.82-2.684 4.995-2.684 4.995-.447 1.006-1.6 3.168-3.429 6.467-2.5 4.473-3.8 7.884-3.97 10.269a19.324 19.324 0 004.492-4.492 48.665 48.665 0 004.1-6.635c1.715-3.653 4.734-7.716 4.734-11.8a8.415 8.415 0 00-.186-1.771s-.578-.242-1.715 1.062zm40.536 0a9.579 9.579 0 00-1.342 1.9c-.466.82-2.684 4.995-2.684 4.995-.447 1.006-1.6 3.168-3.429 6.467-2.5 4.473-3.8 7.884-3.97 10.269a19.324 19.324 0 004.492-4.492 48.663 48.663 0 004.1-6.635c1.7-3.653 4.715-7.716 4.715-11.8a8.415 8.415 0 00-.186-1.771c.019 0-.559-.242-1.7 1.062zm-32.372 49.5a2.56 2.56 0 01-1.864-.764 3.572 3.572 0 01-.69-2.386 6.736 6.736 0 01.578-2.963s1.23-2.292 2.367-1.938c.932.28.913.559 1.621.522a5.892 5.892 0 002.4-1.006 39.822 39.822 0 003.448-3.15 29.688 29.688 0 004.734-6.169c.764-1.361 2.516-5.33 5.293-11.891a91.779 91.779 0 014.79-9.6c1.663-2.981 2.763-4.975 3.266-5.981 1.006-1.733 1.677-2.7 2.907-4.6a40.843 40.843 0 013.038-4.16A4.622 4.622 0 0178.389.1c2.069 0 3.019 1.566 3.019 4.305a24.441 24.441 0 01-1.528 7.679 70.39 70.39 0 01-6.206 12.3 112.9 112.9 0 01-8.722 10.642c-3.988 4.492-5.927 8.387-5.927 11.723 0 2.05.354 3.448 1.006 4.231a3.671 3.671 0 002.814 1.193 15.826 15.826 0 006.709-1.361c2.907-1.193 12.077-5.591 12.077-5.591l.317.429a32.517 32.517 0 01-4.771 4.212 53.317 53.317 0 01-8 4.883 16.28 16.28 0 01-6.56 1.771 11 11 0 01-2.143-.186 4.971 4.971 0 01-4.431-4.03 218.926 218.926 0 00-1.174-5.666l-.951.951c-.019-.037-8.2 8.238-10.828 8.238zm63.628-17.184a4 4 0 001.752 2.5 6.247 6.247 0 002.963.615 52.235 52.235 0 012.5-.075 7.388 7.388 0 01-3.038 2.963c-1.472.857-2.852 1.677-4.175 2.423a27.2 27.2 0 01-5.163 3.112 56.6 56.6 0 01-5.684 2.348c-2.423 1.062-4.454 1.9-6.076 2.5a12.035 12.035 0 01-3.877.839 3.52 3.52 0 01-2.5-.839 4.576 4.576 0 01-.839-3.112c0-1.677 1.23-3.541 2.591-5.013 1.342-1.472 6.486-6.169 10.549-8.2a34.218 34.218 0 017.362-3.038 4.3 4.3 0 001.826.69c.708.13 1.3.876 1.808 2.292zM88.062 50.719a11.011 11.011 0 002.572.3 8.172 8.172 0 003.411-.839c.5-.261 1.323-.69 2.423-1.286.615-.3 1.267-.652 1.976-1.062a4.459 4.459 0 001.51-1.286 2.523 2.523 0 00.54-1.6 17.605 17.605 0 00-.69-3.653 9.73 9.73 0 01-.373-2.05c-2.889 2.069-5.088 3.727-6.6 4.939q-4.249 3.355-4.771 6.542zm71.12-13.288a6.144 6.144 0 01-.615 3.038 123.892 123.892 0 00-1.211 3.038l8.424 1.826a9.6 9.6 0 00-.3 1.137 5.916 5.916 0 00-.3 1.211c-.447 0-1.156-.019-2.125-.075s-1.677-.075-2.125-.075a10.067 10.067 0 00-3.485.54 5.79 5.79 0 00-2.5 2.05c-2.423 3.8-4.827 7.585-7.213 11.387-.615.764-1.826 2.684-4.1 5.386-3.262 3.877-5.107 6.057-7.362 8.424-2.628 2.628-4.864 4.995-6.337 6.411-4.808 4.715-8.8 7.175-12.338 8.07a3.87 3.87 0 01-.913.149 5.681 5.681 0 01-1.062.149c-1.211 0-1.826-.54-1.826-1.6 0-1.323.932-3.448 2.814-6.374 1.006-1.566 2.348-3.448 4.026-5.61 3.187-4.1 6.393-8.163 9.636-12.226a90.617 90.617 0 0110.847-11.164 28.14 28.14 0 013.653-2.572 30.372 30.372 0 013.951-2.125 7.772 7.772 0 002.423-1.51 2.512 2.512 0 00.615-1.752 10.913 10.913 0 00-.373-2.274 119.834 119.834 0 01-9.486 7.9c-4.361 3.131-8.014 4.883-11.015 5.237a8.367 8.367 0 01-1.361.075c-2.218 0-3.336-.783-3.336-2.348a4.8 4.8 0 01.54-1.9c.354-.8 1.752-2.386 4.175-4.7a13.525 13.525 0 002.423-3.038 5.9 5.9 0 00-1.137-.075 16.6 16.6 0 00-7.436 2.2 459.616 459.616 0 01-7.138 3.877q-3.942 2.432-7.809 4.864a3.837 3.837 0 01-1.9-.373 1.448 1.448 0 01-.54-1.137 2.605 2.605 0 01.615-1.51 4.368 4.368 0 011.211-1.211 124.022 124.022 0 0115.711-8.722A46.273 46.273 0 01135.68 38.7c.261-.056.708-.149 1.361-.3a8.509 8.509 0 011.51-.224 2.094 2.094 0 011.9.988 3.493 3.493 0 01.615 1.826 5.127 5.127 0 01-.839 2.5 18.944 18.944 0 00-2.125 4.249 77.672 77.672 0 007.064-4.473c.652-.447 4.324-3.373 11-8.722a11.118 11.118 0 012.125 1.361 1.962 1.962 0 01.895 1.528zm-36.511 40.014q-4.249 5-3.877 8.126c.559-.019 2.647.112 6.709-3.653 1.491-1.379 9.542-10.064 11.238-12.04s2.684-3.187 5.722-6.523c4.4-4.864 5.256-8.089 5.256-11.425a104.7 104.7 0 00-10.1 7.977c-3.578 3.28-13.419 15.749-14.947 17.538zm67.319-23.278a5.705 5.705 0 01-2.74-1.211c-.839-.764-3.094-3.317-3.187-3.411-.764.429-4.976 2.4-7.138 3.411a42.3 42.3 0 01-7.958 2.963 8.2 8.2 0 01-2.125.3c-1.51 0-2.274-.652-2.274-1.976s.727-3.038 2.2-5.163a20.89 20.89 0 013.951-4.473 17.074 17.074 0 016.914-3.038c.857-.205 3.112-.559 6.747-1.062q5.535-.839 9.039-9.412 3.494-8.666 6.84-9.412a45.292 45.292 0 011.882 6.393 15.491 15.491 0 01-.205 6.281 11.169 11.169 0 01-1.137 2.572 12.345 12.345 0 01-2.814 3.187c-1.864 1.51-3.727 3.019-5.535 4.473a3.953 3.953 0 00-1.51 2.889c0 .913.857 1.435 2.572 1.6 1.771.149 3.448.261 5.013.3a6.219 6.219 0 01-2.348 3.8 8.708 8.708 0 01-4.119 1.081 12.682 12.682 0 01-2.069-.093zm3.988-13.456a16.543 16.543 0 004.268-4.79 12.561 12.561 0 002.181-6.15 4.916 4.916 0 00-.522-2.516 4.043 4.043 0 00-1.752-1.882c-1.211 2.889-2.106 5.069-2.665 6.523a20.688 20.688 0 00-1.678 6.704 10.238 10.238 0 00.168 2.106zm-26.223 11.723A16.764 16.764 0 00174 51.316a29.941 29.941 0 009.226-4.846 6.462 6.462 0 002.8-5.181 26.762 26.762 0 00-10.772 3.262c-3.783 2.2-6.281 4.846-7.492 7.884z" transform="translate(240 41.9)"/></g></svg>