<svg xmlns="http://www.w3.org/2000/svg" viewBox="0 0 645.1 63.5"><switch><g><path d="M4 0h55.6C64.2 0 64 4 64 4v26.6S41.7 8.2 39.4 6c-2.1-2-2.5.2-2.5.2v2.2l-4.8-4.8L27 8.5V5.7c-.6-1.2-1.9-.3-1.9-.3L0 30.4V4C0 .1 4 0 4 0zm59.9 34v23.8s.3 5.6-5.6 5.6H4.7c-5.3 0-4.7-5.6-4.7-5.6V37.1l31.9-32 27.8 27.8H45.8L32 19.1 9.3 41.7V52s0 2.1 2.1 2.1H52c2.3 0 1.9-2.1 1.9-2.1v-8.6H27V34h36.9zM37 33.2H27v-8l5-4.9 4.9 4.9v8zM27 44.4h10v8.9H27v-8.9zm62.7-31.3V8.6h25.4v4.5h-10.3v41.8H100V13.1H89.7zm76.8 3.2l-3.6 3.4c-2.6-2.5-5.4-4.5-8.5-5.8-3.1-1.3-6.1-2-9-2-3.6 0-7.1.9-10.4 2.7-3.3 1.8-5.8 4.2-7.6 7.3-1.8 3.1-2.7 6.3-2.7 9.7 0 3.5.9 6.8 2.8 9.9 1.9 3.1 4.5 5.6 7.8 7.4 3.3 1.8 6.9 2.7 10.8 2.7 4.8 0 8.8-1.3 12.1-4 3.3-2.7 5.3-6.2 5.9-10.5h-14.8v-4.5h20c0 7.2-2.2 12.9-6.4 17.1-4.2 4.2-9.9 6.3-16.9 6.3-8.6 0-15.4-2.9-20.4-8.8-3.8-4.5-5.8-9.7-5.8-15.6 0-4.4 1.1-8.5 3.3-12.3 2.2-3.8 5.2-6.7 9.1-8.9s8.2-3.2 13-3.2c3.9 0 7.6.7 11.1 2.1 3.5 1.6 6.9 3.9 10.2 7zm29.4 38.6V8.6h9.6c6.9 0 12 .6 15.1 1.7 4.5 1.6 8 4.3 10.5 8.2 2.5 3.9 3.8 8.5 3.8 13.9 0 4.6-1 8.7-3 12.3-2 3.5-4.6 6.1-7.8 7.8-3.2 1.7-7.7 2.5-13.5 2.5h-14.7zm4.5-4.4h5.4c6.4 0 10.9-.4 13.3-1.2 3.5-1.1 6.2-3.2 8.2-6.1 2-3 3-6.6 3-10.8 0-4.5-1.1-8.3-3.2-11.5-2.2-3.2-5.2-5.3-9-6.5-2.9-.9-7.7-1.3-14.3-1.3h-3.3v37.4zM244 8.6h26.6v4.5h-21.9v14.5h21.8v4.5h-21.8v18.2h21.8v4.5H244V8.6zm31 0h5l15.4 35.8L311 8.6h5L295.8 55h-1L275 8.6zm48.9 0h26.6v4.5h-21.9v14.5h21.7v4.5h-21.7v18.2h21.7v4.5h-26.4V8.6zm34.6 0h4.6v41.9H381V55h-22.5V8.6zm51.9-1.2c7 0 12.9 2.3 17.6 7 4.7 4.7 7.1 10.5 7.1 17.3 0 6.8-2.4 12.5-7.1 17.3-4.7 4.7-10.5 7.1-17.3 7.1-6.9 0-12.7-2.4-17.4-7.1-4.7-4.7-7.1-10.4-7.1-17.1 0-4.5 1.1-8.6 3.2-12.4 2.2-3.8 5.1-6.8 8.8-8.9 3.8-2.1 7.9-3.2 12.2-3.2zm.2 4.5c-3.4 0-6.7.9-9.8 2.7-3.1 1.8-5.5 4.2-7.2 7.2s-2.6 6.4-2.6 10.1c0 5.5 1.9 10.2 5.7 14s8.4 5.7 13.8 5.7c3.6 0 6.9-.9 10-2.6 3.1-1.7 5.5-4.1 7.2-7.2 1.7-3 2.6-6.4 2.6-10.1 0-3.7-.9-7-2.6-10-1.7-3-4.1-5.4-7.2-7.1-3.1-1.8-6.4-2.7-9.9-2.7zm33.8-3.3h9.2c5.3 0 8.9.2 10.7.7 2.6.7 4.8 2 6.5 4 1.7 2 2.5 4.6 2.5 7.6 0 3.1-.8 5.6-2.5 7.6-1.6 2-3.9 3.4-6.8 4.1-2.1.5-6 .8-11.8.8H449V55h-4.6V8.6zm4.6 4.5v15.7l7.8.1c3.2 0 5.5-.3 7-.9 1.5-.6 2.6-1.5 3.5-2.8.8-1.3 1.3-2.7 1.3-4.3 0-1.6-.4-3-1.3-4.3-.8-1.3-1.9-2.2-3.3-2.8-1.4-.5-3.6-.8-6.8-.8H449zm31.5 41.8l6.6-46.4h.8l18.8 38 18.7-38h.7l6.7 46.4h-4.5l-4.6-33.2-16.4 33.2h-1.2l-16.6-33.4-4.5 33.4h-4.5zM542 8.6h26.6v4.5h-21.9v14.5h21.8v4.5h-21.8v18.2h21.8v4.5H542V8.6zm34.6 46.3V8.6h1l30.9 35.5V8.6h4.6V55h-1l-30.6-35.1V55h-4.9zm43.1-41.8V8.6h25.4v4.5h-10.3v41.8h-4.7V13.1h-10.4z" fill="#fff"/></g></switch></svg>