<svg xmlns="http://www.w3.org/2000/svg" width="24" height="24" viewBox="0 0 172 172" fill="#fff"><g fill="none" stroke-miterlimit="10" font-family="none" font-weight="none" font-size="none" text-anchor="none" style="mix-blend-mode:normal"><path d="M0 172V0h172v172z"/><path d="M44.72 10.32c-18.959 0-34.4 15.441-34.4 34.4v82.56c0 18.959 15.441 34.4 34.4 34.4h82.56c18.959 0 34.4-15.441 34.4-34.4V44.72c0-18.962-15.441-34.4-34.4-34.4zm0 6.88h82.56c15.242 0 27.52 12.275 27.52 27.52v82.56c0 15.241-12.279 27.52-27.52 27.52H44.72c-15.241 0-27.52-12.279-27.52-27.52V44.72c0-15.241 12.279-27.52 27.52-27.52zm60.865 30.96c-12.39 0-22.494 10.143-22.494 22.548 0 .09.032.173.033.262-13.12-1.75-24.731-8.241-32.706-18.046a3.44 3.44 0 00-5.644.443 22.548 22.548 0 00-3.037 11.335c0 3.663 1.016 7.073 2.573 10.145a3.44 3.44 0 00-2.728 3.366v.242c0 6.669 3.11 12.445 7.727 16.582a3.44 3.44 0 00-.894 3.534c1.921 5.99 6.394 10.687 12.007 13.33-4.488 2.105-9.291 3.614-14.593 3.614-1.414 0-2.787-.073-4.132-.235a3.44 3.44 0 00-2.278 6.31 57.235 57.235 0 0031.067 9.13c18.478 0 33.078-7.78 42.84-18.88 9.76-11.1 14.827-25.422 14.827-38.915 0-.408-.018-.801-.026-1.202 3.352-2.697 6.506-5.672 8.895-9.259a3.44 3.44 0 00-3.877-5.187c.562-1.091 1.348-2.044 1.727-3.231a3.44 3.44 0 00-5.039-4.005c-3.006 1.787-6.378 2.969-9.876 3.79-3.933-3.36-8.825-5.671-14.372-5.671zm0 6.88c4.511 0 8.547 1.897 11.395 4.945a3.44 3.44 0 003.178 1.021c.533-.105.96-.446 1.485-.57-.077.047-.123.134-.202.18a3.44 3.44 0 001.835 6.39c-.243.185-.385.48-.632.659a3.44 3.44 0 00-1.424 2.929c.032.775.053 1.556.053 2.331 0 11.75-4.519 24.606-13.108 34.373-8.589 9.768-21.106 16.542-37.679 16.542-5.7 0-11.061-1.15-16.165-2.89 6.354-1.342 12.368-3.588 17.294-7.464a3.44 3.44 0 00-2.063-6.14c-4.874-.089-8.633-2.85-11.435-6.424 1.037-.134 2.11-.143 3.098-.416a3.44 3.44 0 00-.236-6.692c-5.681-1.149-10.12-5.43-11.744-10.965 1.465.354 2.75 1.146 4.307 1.196a3.44 3.44 0 002.022-6.296 15.64 15.64 0 01-6.947-13.047c0-1.127.604-2.023.826-3.078 9.77 9.694 22.77 16.13 37.41 16.871a3.44 3.44 0 003.52-4.226 15.46 15.46 0 01-.402-3.56c0-8.697 6.952-15.669 15.614-15.669z" fill="#FFF"/></g></svg>